<svg id="logosandtypes_com" data-name="logosandtypes com" xmlns="http://www.w3.org/2000/svg" viewBox="0 0 150 150"><defs><style>.cls-1{fill:none;}.cls-2{fill:#176fc1;fill-rule:evenodd;}</style></defs><path class="cls-1" d="M0,.2H150v150H0Z" transform="translate(0 -0.2)"/><path class="cls-2" d="M120.18,40.43l-7.34,14.9-23.3.56s-7.28,0-12.24,7.84L53,107.81s-1.4,2.38-3.71,2.45l-19-1s-2,.21-.42-2.66c0,0,17.35-35.69,31.27-58.22,0,0,3.37-7.18,14.37-7.63Z" transform="translate(0 -0.2)"/><path class="cls-2" d="M103.26,76,97.32,87.25s-.27.71-1.95.71l-28.12.35s-1-.09-.44-1.33l5.5-10.73A2.88,2.88,0,0,1,75,75.1c2,0,27.67-.36,27.67-.36S103.88,74.66,103.26,76Z" transform="translate(0 -0.2)"/><path class="cls-2" d="M103.26,76,97.32,87.25s-.27.71-1.95.71l-28.12.35s-1-.09-.44-1.33l5.5-10.73A2.88,2.88,0,0,1,75,75.1c2,0,27.67-.36,27.67-.36S103.88,74.66,103.26,76Z" transform="translate(0 -0.2)"/><path class="cls-2" d="M120.18,40.43l-7.34,14.9-23.3.56s-7.28,0-12.24,7.84L53,107.81s-1.4,2.38-3.71,2.45l-19-1s-2,.21-.42-2.66c0,0,17.35-35.69,31.27-58.22,0,0,3.37-7.18,14.37-7.63Z" transform="translate(0 -0.2)"/><path class="cls-2" d="M75,9.6a65.47,65.47,0,1,0,65.47,65.47A65.47,65.47,0,0,0,75,9.6Zm0,122.47a57,57,0,1,1,57-57A57,57,0,0,1,75,132.07Z" transform="translate(0 -0.2)"/><path class="cls-2" d="M103.26,76,97.32,87.25s-.27.71-1.95.71l-28.12.35s-1-.09-.44-1.33l5.5-10.73A2.88,2.88,0,0,1,75,75.1c2,0,27.67-.36,27.67-.36S103.88,74.66,103.26,76Z" transform="translate(0 -0.2)"/><path class="cls-2" d="M120.18,40.43l-7.34,14.9-23.3.56s-7.28,0-12.24,7.84L53,107.81s-1.4,2.38-3.71,2.45l-19-1s-2,.21-.42-2.66c0,0,17.35-35.69,31.27-58.22,0,0,3.37-7.18,14.37-7.63Z" transform="translate(0 -0.2)"/></svg>